<mxfile host="app.diagrams.net" modified="2023-11-17T18:31:01.868Z" agent="Mozilla/5.0 (X11; Ubuntu; Linux x86_64; rv:109.0) Gecko/20100101 Firefox/118.0" etag="q7aASnn1Ur9PloqKsvt_" version="22.1.3" type="device">
  <diagram name="Página-1" id="gSkes7LC5rxwppdU8-W0">
    <mxGraphModel dx="1458" dy="768" grid="1" gridSize="10" guides="1" tooltips="1" connect="1" arrows="1" fold="1" page="1" pageScale="1" pageWidth="827" pageHeight="1169" math="0" shadow="0">
      <root>
        <mxCell id="0" />
        <mxCell id="1" parent="0" />
        <UserObject label="&lt;font style=&quot;font-size: 27px;&quot;&gt;Tabla de páginas virtuales&lt;/font&gt;" placeholders="1" name="Variable" id="KOWkEeIVN-b_AemoHxq0-1">
          <mxCell style="text;html=1;strokeColor=#6c8ebf;fillColor=#dae8fc;align=center;verticalAlign=middle;whiteSpace=wrap;overflow=hidden;" parent="1" vertex="1">
            <mxGeometry x="223" y="20" width="381" height="70" as="geometry" />
          </mxCell>
        </UserObject>
        <mxCell id="KOWkEeIVN-b_AemoHxq0-2" value="" style="shape=table;startSize=0;container=1;collapsible=0;childLayout=tableLayout;fontSize=16;" parent="1" vertex="1">
          <mxGeometry x="250" y="180" width="450" height="346" as="geometry" />
        </mxCell>
        <mxCell id="KOWkEeIVN-b_AemoHxq0-3" value="" style="shape=tableRow;horizontal=0;startSize=0;swimlaneHead=0;swimlaneBody=0;strokeColor=inherit;top=0;left=0;bottom=0;right=0;collapsible=0;dropTarget=0;fillColor=none;points=[[0,0.5],[1,0.5]];portConstraint=eastwest;fontSize=16;" parent="KOWkEeIVN-b_AemoHxq0-2" vertex="1">
          <mxGeometry width="450" height="86" as="geometry" />
        </mxCell>
        <mxCell id="KOWkEeIVN-b_AemoHxq0-4" value="1 o 0" style="shape=partialRectangle;html=1;whiteSpace=wrap;connectable=0;strokeColor=inherit;overflow=hidden;fillColor=none;top=0;left=0;bottom=0;right=0;pointerEvents=1;fontSize=16;" parent="KOWkEeIVN-b_AemoHxq0-3" vertex="1">
          <mxGeometry width="80" height="86" as="geometry">
            <mxRectangle width="80" height="86" as="alternateBounds" />
          </mxGeometry>
        </mxCell>
        <mxCell id="KOWkEeIVN-b_AemoHxq0-5" value="1 o 0" style="shape=partialRectangle;html=1;whiteSpace=wrap;connectable=0;strokeColor=inherit;overflow=hidden;fillColor=none;top=0;left=0;bottom=0;right=0;pointerEvents=1;fontSize=16;" parent="KOWkEeIVN-b_AemoHxq0-3" vertex="1">
          <mxGeometry x="80" width="80" height="86" as="geometry">
            <mxRectangle width="80" height="86" as="alternateBounds" />
          </mxGeometry>
        </mxCell>
        <mxCell id="KOWkEeIVN-b_AemoHxq0-6" value="&lt;div&gt;Dirección física (entre 0 y 2¹⁹ - 1)&lt;/div&gt;&lt;div&gt;Si D = 1 o V = 0 se ignora el valor de este slot&lt;/div&gt;" style="shape=partialRectangle;html=1;whiteSpace=wrap;connectable=0;strokeColor=inherit;overflow=hidden;fillColor=none;top=0;left=0;bottom=0;right=0;pointerEvents=1;fontSize=16;" parent="KOWkEeIVN-b_AemoHxq0-3" vertex="1">
          <mxGeometry x="160" width="290" height="86" as="geometry">
            <mxRectangle width="290" height="86" as="alternateBounds" />
          </mxGeometry>
        </mxCell>
        <mxCell id="KOWkEeIVN-b_AemoHxq0-7" value="" style="shape=tableRow;horizontal=0;startSize=0;swimlaneHead=0;swimlaneBody=0;strokeColor=inherit;top=0;left=0;bottom=0;right=0;collapsible=0;dropTarget=0;fillColor=none;points=[[0,0.5],[1,0.5]];portConstraint=eastwest;fontSize=16;" parent="KOWkEeIVN-b_AemoHxq0-2" vertex="1">
          <mxGeometry y="86" width="450" height="88" as="geometry" />
        </mxCell>
        <mxCell id="KOWkEeIVN-b_AemoHxq0-8" value="1 o 0" style="shape=partialRectangle;html=1;whiteSpace=wrap;connectable=0;strokeColor=inherit;overflow=hidden;fillColor=none;top=0;left=0;bottom=0;right=0;pointerEvents=1;fontSize=16;" parent="KOWkEeIVN-b_AemoHxq0-7" vertex="1">
          <mxGeometry width="80" height="88" as="geometry">
            <mxRectangle width="80" height="88" as="alternateBounds" />
          </mxGeometry>
        </mxCell>
        <mxCell id="KOWkEeIVN-b_AemoHxq0-9" value="1 o 0" style="shape=partialRectangle;html=1;whiteSpace=wrap;connectable=0;strokeColor=inherit;overflow=hidden;fillColor=none;top=0;left=0;bottom=0;right=0;pointerEvents=1;fontSize=16;" parent="KOWkEeIVN-b_AemoHxq0-7" vertex="1">
          <mxGeometry x="80" width="80" height="88" as="geometry">
            <mxRectangle width="80" height="88" as="alternateBounds" />
          </mxGeometry>
        </mxCell>
        <mxCell id="KOWkEeIVN-b_AemoHxq0-10" value="&lt;div&gt;Dirección física (entre 0 y 2¹⁹ - 1)&lt;/div&gt;&amp;nbsp;Si D = 1 o V = 0 se ignora el valor de este slot" style="shape=partialRectangle;html=1;whiteSpace=wrap;connectable=0;strokeColor=inherit;overflow=hidden;fillColor=none;top=0;left=0;bottom=0;right=0;pointerEvents=1;fontSize=16;" parent="KOWkEeIVN-b_AemoHxq0-7" vertex="1">
          <mxGeometry x="160" width="290" height="88" as="geometry">
            <mxRectangle width="290" height="88" as="alternateBounds" />
          </mxGeometry>
        </mxCell>
        <mxCell id="KOWkEeIVN-b_AemoHxq0-11" value="" style="shape=tableRow;horizontal=0;startSize=0;swimlaneHead=0;swimlaneBody=0;strokeColor=inherit;top=0;left=0;bottom=0;right=0;collapsible=0;dropTarget=0;fillColor=none;points=[[0,0.5],[1,0.5]];portConstraint=eastwest;fontSize=16;" parent="KOWkEeIVN-b_AemoHxq0-2" vertex="1">
          <mxGeometry y="174" width="450" height="86" as="geometry" />
        </mxCell>
        <mxCell id="KOWkEeIVN-b_AemoHxq0-12" value="..." style="shape=partialRectangle;html=1;whiteSpace=wrap;connectable=0;strokeColor=inherit;overflow=hidden;fillColor=none;top=0;left=0;bottom=0;right=0;pointerEvents=1;fontSize=16;" parent="KOWkEeIVN-b_AemoHxq0-11" vertex="1">
          <mxGeometry width="80" height="86" as="geometry">
            <mxRectangle width="80" height="86" as="alternateBounds" />
          </mxGeometry>
        </mxCell>
        <mxCell id="KOWkEeIVN-b_AemoHxq0-13" value="..." style="shape=partialRectangle;html=1;whiteSpace=wrap;connectable=0;strokeColor=inherit;overflow=hidden;fillColor=none;top=0;left=0;bottom=0;right=0;pointerEvents=1;fontSize=16;" parent="KOWkEeIVN-b_AemoHxq0-11" vertex="1">
          <mxGeometry x="80" width="80" height="86" as="geometry">
            <mxRectangle width="80" height="86" as="alternateBounds" />
          </mxGeometry>
        </mxCell>
        <mxCell id="KOWkEeIVN-b_AemoHxq0-14" value="..." style="shape=partialRectangle;html=1;whiteSpace=wrap;connectable=0;strokeColor=inherit;overflow=hidden;fillColor=none;top=0;left=0;bottom=0;right=0;pointerEvents=1;fontSize=16;" parent="KOWkEeIVN-b_AemoHxq0-11" vertex="1">
          <mxGeometry x="160" width="290" height="86" as="geometry">
            <mxRectangle width="290" height="86" as="alternateBounds" />
          </mxGeometry>
        </mxCell>
        <mxCell id="KOWkEeIVN-b_AemoHxq0-15" style="shape=tableRow;horizontal=0;startSize=0;swimlaneHead=0;swimlaneBody=0;strokeColor=inherit;top=0;left=0;bottom=0;right=0;collapsible=0;dropTarget=0;fillColor=none;points=[[0,0.5],[1,0.5]];portConstraint=eastwest;fontSize=16;" parent="KOWkEeIVN-b_AemoHxq0-2" vertex="1">
          <mxGeometry y="260" width="450" height="86" as="geometry" />
        </mxCell>
        <mxCell id="KOWkEeIVN-b_AemoHxq0-16" value="1 o 0" style="shape=partialRectangle;html=1;whiteSpace=wrap;connectable=0;strokeColor=inherit;overflow=hidden;fillColor=none;top=0;left=0;bottom=0;right=0;pointerEvents=1;fontSize=16;" parent="KOWkEeIVN-b_AemoHxq0-15" vertex="1">
          <mxGeometry width="80" height="86" as="geometry">
            <mxRectangle width="80" height="86" as="alternateBounds" />
          </mxGeometry>
        </mxCell>
        <mxCell id="KOWkEeIVN-b_AemoHxq0-17" value="1 o 0" style="shape=partialRectangle;html=1;whiteSpace=wrap;connectable=0;strokeColor=inherit;overflow=hidden;fillColor=none;top=0;left=0;bottom=0;right=0;pointerEvents=1;fontSize=16;" parent="KOWkEeIVN-b_AemoHxq0-15" vertex="1">
          <mxGeometry x="80" width="80" height="86" as="geometry">
            <mxRectangle width="80" height="86" as="alternateBounds" />
          </mxGeometry>
        </mxCell>
        <mxCell id="KOWkEeIVN-b_AemoHxq0-18" value="&lt;div&gt;Dirección física (entre 0 y 2¹⁹ - 1)&amp;nbsp;&lt;/div&gt;&lt;div&gt;Si D = 1 o V = 0 se ignora el valor de este slot&lt;/div&gt;" style="shape=partialRectangle;html=1;whiteSpace=wrap;connectable=0;strokeColor=inherit;overflow=hidden;fillColor=none;top=0;left=0;bottom=0;right=0;pointerEvents=1;fontSize=16;" parent="KOWkEeIVN-b_AemoHxq0-15" vertex="1">
          <mxGeometry x="160" width="290" height="86" as="geometry">
            <mxRectangle width="290" height="86" as="alternateBounds" />
          </mxGeometry>
        </mxCell>
        <UserObject label="&lt;font style=&quot;font-size: 18px;&quot;&gt;Dirección página física&lt;/font&gt;" placeholders="1" name="Variable" id="KOWkEeIVN-b_AemoHxq0-19">
          <mxCell style="text;html=1;strokeColor=#b85450;fillColor=#f8cecc;align=center;verticalAlign=middle;whiteSpace=wrap;overflow=hidden;" parent="1" vertex="1">
            <mxGeometry x="441" y="120" width="230" height="40" as="geometry" />
          </mxCell>
        </UserObject>
        <UserObject label="&lt;font style=&quot;font-size: 18px;&quot;&gt;Dirección página virtual&lt;/font&gt;" placeholders="1" name="Variable" id="KOWkEeIVN-b_AemoHxq0-20">
          <mxCell style="text;html=1;strokeColor=#b85450;fillColor=#f8cecc;align=center;verticalAlign=middle;whiteSpace=wrap;overflow=hidden;" parent="1" vertex="1">
            <mxGeometry x="10" y="120" width="230" height="40" as="geometry" />
          </mxCell>
        </UserObject>
        <UserObject label="&lt;font style=&quot;font-size: 18px;&quot;&gt;D&lt;/font&gt;" placeholders="1" name="Variable" id="KOWkEeIVN-b_AemoHxq0-21">
          <mxCell style="text;html=1;strokeColor=#b85450;fillColor=#f8cecc;align=center;verticalAlign=middle;whiteSpace=wrap;overflow=hidden;" parent="1" vertex="1">
            <mxGeometry x="340" y="120" width="60" height="40" as="geometry" />
          </mxCell>
        </UserObject>
        <UserObject label="&lt;font style=&quot;font-size: 18px;&quot;&gt;V&lt;/font&gt;" placeholders="1" name="Variable" id="KOWkEeIVN-b_AemoHxq0-22">
          <mxCell style="text;html=1;strokeColor=#b85450;fillColor=#f8cecc;align=center;verticalAlign=middle;whiteSpace=wrap;overflow=hidden;" parent="1" vertex="1">
            <mxGeometry x="260" y="120" width="60" height="40" as="geometry" />
          </mxCell>
        </UserObject>
        <UserObject label="&lt;div style=&quot;font-size: 16px;&quot;&gt;&lt;font style=&quot;font-size: 16px;&quot;&gt;Dirección 1: 0 = 0...0&lt;/font&gt;&lt;/div&gt;&lt;div style=&quot;font-size: 16px;&quot;&gt;&lt;font style=&quot;font-size: 16px;&quot;&gt;&amp;nbsp;(38 0&#39;s)&lt;br&gt;&lt;/font&gt;&lt;/div&gt;" placeholders="1" name="Variable" id="KOWkEeIVN-b_AemoHxq0-23">
          <mxCell style="text;html=1;strokeColor=none;fillColor=none;align=center;verticalAlign=middle;whiteSpace=wrap;overflow=hidden;" parent="1" vertex="1">
            <mxGeometry y="200" width="250" height="40" as="geometry" />
          </mxCell>
        </UserObject>
        <UserObject label="&lt;div&gt;&lt;font style=&quot;font-size: 16px;&quot;&gt;Dirección 2: 1 = 0...01&lt;/font&gt;&lt;/div&gt;&lt;div&gt;&lt;font style=&quot;font-size: 16px;&quot;&gt;&amp;nbsp;(37 0&#39;s y un 1)&lt;/font&gt;&lt;/div&gt;" placeholders="1" name="Variable" id="KOWkEeIVN-b_AemoHxq0-24">
          <mxCell style="text;html=1;strokeColor=none;fillColor=none;align=center;verticalAlign=middle;whiteSpace=wrap;overflow=hidden;" parent="1" vertex="1">
            <mxGeometry y="290" width="250" height="40" as="geometry" />
          </mxCell>
        </UserObject>
        <UserObject label="..." placeholders="1" name="Variable" id="KOWkEeIVN-b_AemoHxq0-25">
          <mxCell style="text;html=1;strokeColor=none;fillColor=none;align=center;verticalAlign=middle;whiteSpace=wrap;overflow=hidden;" parent="1" vertex="1">
            <mxGeometry y="370" width="250" height="40" as="geometry" />
          </mxCell>
        </UserObject>
        <UserObject label="&lt;div&gt;&lt;font style=&quot;font-size: 16px;&quot;&gt;Dirección 2³⁸: 2³⁸ - 1 = 1...1&lt;/font&gt;&lt;/div&gt;&lt;div&gt;&lt;font style=&quot;font-size: 16px;&quot;&gt;&amp;nbsp;(38 1&#39;s)&lt;/font&gt;&lt;/div&gt;" placeholders="1" name="Variable" id="KOWkEeIVN-b_AemoHxq0-26">
          <mxCell style="text;html=1;strokeColor=none;fillColor=none;align=center;verticalAlign=middle;whiteSpace=wrap;overflow=hidden;" parent="1" vertex="1">
            <mxGeometry y="460" width="250" height="40" as="geometry" />
          </mxCell>
        </UserObject>
        <UserObject label="&lt;font style=&quot;font-size: 28px;&quot;&gt;g&lt;/font&gt;" placeholders="1" name="Variable" id="KOWkEeIVN-b_AemoHxq0-27">
          <mxCell style="text;html=1;strokeColor=#d6b656;fillColor=#fff2cc;align=center;verticalAlign=middle;whiteSpace=wrap;overflow=hidden;" parent="1" vertex="1">
            <mxGeometry x="50" y="20" width="80" height="70" as="geometry" />
          </mxCell>
        </UserObject>
      </root>
    </mxGraphModel>
  </diagram>
</mxfile>
